<svg xmlns="http://www.w3.org/2000/svg" viewBox="0 0 100 100"><path fill="#191C22" d="M53.5878494,29.2536792 L53.5878494,44.1236336 C55.6263408,45.1610723 56.985335,47.5817625 56.985335,50.0024528 C56.985335,50.6940786 56.985335,51.0398915 56.6455865,51.7315172 L62.0815636,57.2645235 C63.4405578,58.6477751 63.4405578,60.7226525 62.0815636,62.105904 C60.7225693,63.4891556 58.6840779,63.4891556 57.3250836,62.105904 L51.8891065,56.5728978 C51.2096094,56.5728978 50.8698608,56.9187106 50.1903637,56.9187106 C46.4531295,56.9187106 43.3953924,53.8063946 43.3953924,50.0024528 C43.3953924,47.5817625 44.7543866,45.1610723 46.792878,44.1236336 L46.792878,29.2536792 C46.792878,27.1788018 48.1518723,25.7955502 50.1903637,25.7955502 C52.2288551,25.7955502 53.5878494,27.1788018 53.5878494,29.2536792 Z M49.8506151,8.50490555 C28.786204,8.85071844 11.459027,25.4497373 9.7602842,46.5443238 L2.62556429,46.5443238 C1.26657002,46.5443238 0.587072884,48.2733883 1.26657002,49.310827 L13.1577699,66.9472846 C13.837267,67.9847232 15.1962613,67.9847232 15.8757584,66.9472846 L27.7669583,49.310827 C28.4464554,48.2733883 27.7669583,46.5443238 26.407964,46.5443238 L19.6129927,46.5443238 C21.3117355,31.3285565 33.8824325,19.2251052 49.5108666,18.8792924 C66.1585464,18.5334795 80.0882376,32.3659952 80.7677348,48.9650141 C81.4472319,66.6014717 67.5175406,81.1256132 50.1903637,81.1256132 C42.0363981,81.1256132 34.5619296,78.0132972 29.1259525,72.4802909 C27.7669583,71.0970393 25.0489697,71.0970393 24.029724,73.1719166 L21.9912326,75.9384198 C20.9719869,77.3216714 21.3117355,79.3965487 22.6707298,80.4339874 C29.8054497,87.3502453 39.6581581,91.5 50.1903637,91.5 C73.2932663,91.5 91.9794375,72.134478 90.9601918,48.2733883 C89.9409461,26.1413631 71.5945234,8.15909266 49.8506151,8.50490555 Z"/></svg>