<svg xmlns="http://www.w3.org/2000/svg" viewBox="0 0 100 100"><path fill="#EF4035" d="M50,0 C22.5,0 0,22.5 0,50 C0,77.5 22.5,100 50,100 C77.5,100 100,77.5 100,50 C100,22.5 77.5,0 50,0 Z M50,87.5 C29.1666667,87.5 12.5,70.8333333 12.5,50 C12.5,29.1666667 29.1666667,12.5 50,12.5 C70.8333333,12.5 87.5,29.1666667 87.5,50 C87.5,70.8333333 70.8333333,87.5 50,87.5 Z M72.0833333,39.5833333 L61.6666667,50 L72.0833333,60.4166667 C72.9166667,61.25 72.9166667,62.5 72.0833333,63.3333333 L63.3333333,72.0833333 C62.5,72.9166667 61.25,72.9166667 60.4166667,72.0833333 L50,61.6666667 L39.5833333,72.0833333 C38.75,72.9166667 37.5,72.9166667 36.6666667,72.0833333 L27.9166667,63.3333333 C27.0833333,62.5 27.0833333,61.25 27.9166667,60.4166667 L38.3333333,50 L27.9166667,39.5833333 C27.0833333,38.75 27.0833333,37.5 27.9166667,36.6666667 L36.6666667,27.9166667 C37.5,27.0833333 38.75,27.0833333 39.5833333,27.9166667 L50,38.3333333 L60.4166667,27.9166667 C61.25,27.0833333 62.5,27.0833333 63.3333333,27.9166667 L72.0833333,36.6666667 C72.9166667,37.5 72.9166667,38.75 72.0833333,39.5833333 Z"/></svg>