<svg xmlns="http://www.w3.org/2000/svg" viewBox="0 0 100 100"><path fill="#5DBF14" d="M50,0 C22.5,0 0,22.5 0,50 C0,77.5 22.5,100 50,100 C77.5,100 100,77.5 100,50 C100,22.5 77.5,0 50,0 Z M50,87.5 C29.1666667,87.5 12.5,70.8333333 12.5,50 C12.5,29.1666667 29.1666667,12.5 50,12.5 C70.8333333,12.5 87.5,29.1666667 87.5,50 C87.5,70.8333333 70.8333333,87.5 50,87.5 Z M75.4166667,34.5833333 C76.25,35.4166667 76.25,36.6666667 75.4166667,37.5 L47.0833333,71.25 C45.4166667,73.3333333 42.5,73.3333333 40.8333333,71.25 L24.5833333,53.3333333 C23.75,52.5 23.75,51.25 24.5833333,50.4166667 L29.1666667,45.4166667 C30,44.5833333 30.8333333,44.5833333 31.6666667,45 L42.5,52.0833333 L67.5,30.4166667 C68.3333333,29.5833333 69.5833333,29.5833333 70.4166667,30.4166667 L75.4166667,34.5833333 Z"/></svg>