<svg xmlns="http://www.w3.org/2000/svg" viewBox="0 0 244 54"><g fill="#191C22" fill-rule="evenodd" transform="translate(4.288 3.28)"><polygon fill-rule="nonzero" points=".864 46.72 22.624 46.72 30.784 36.992 30.784 30.144 9.504 13.984 9.504 11.744 12.736 7.456 30.24 7.456 29.408 0 8.48 0 .32 9.728 .32 16.576 21.6 32.736 21.6 34.976 18.368 39.264 0 39.264"/><polygon fill-rule="nonzero" points="55.968 46.72 65.088 46.72 65.088 36.192 55.744 22.72 65.088 10.528 65.088 0 56.608 0 56.608 9.088 48.896 19.776 43.168 19.776 43.168 0 34.624 0 34.624 46.72 43.168 46.72 43.168 26.72 48.192 26.72 55.968 38.496"/><polygon fill-rule="nonzero" points="69.216 46.72 98.208 46.72 98.848 39.776 87.808 39.776 87.808 6.944 98.848 6.944 98.208 0 69.216 0 68.576 6.944 79.424 6.944 79.424 39.776 68.576 39.776"/><path fill-rule="nonzero" d="M102.976 46.7200077 111.520002 46.7200077 111.520002 30.400005 124.096004 30.400005 134.496005 20 134.496005 9.63200158 123.968004 0 102.976 0 102.976 46.7200077ZM111.520002 24.192004 111.520002 7.48800123 120.352003 7.48800123 126.208004 12.480002 126.208004 17.1840028 120.256003 24.192004 111.520002 24.192004ZM137.056 46.7200077 145.600002 46.7200077 145.600002 30.400005 158.176004 30.400005 168.576005 20 168.576005 9.63200158 158.048004 0 137.056 0 137.056 46.7200077ZM145.600002 24.192004 145.600002 7.48800123 154.432003 7.48800123 160.288004 12.480002 160.288004 17.1840028 154.336003 24.192004 145.600002 24.192004Z"/><polygon fill-rule="nonzero" points="171.456 46.72 200.064 46.72 200.896 39.776 179.808 39.776 179.808 26.528 195.872 26.528 195.872 19.936 179.808 19.936 179.808 6.944 199.84 6.944 198.976 0 171.456 0"/><path fill-rule="nonzero" d="M205.216,46.7200077 L213.760002,46.7200077 L213.760002,28.1600046 L220.704003,28.1600046 L227.840004,39.1360064 L227.840004,46.7200077 L236.352005,46.7200077 L236.352005,38.4960063 L227.936004,26.3680043 L236.640005,18.592003 L236.640005,9.40800154 L225.792003,0 L205.216,0 L205.216,46.7200077 Z M213.760002,22.5920037 L213.760002,7.48800123 L222.368003,7.48800123 L228.352004,12.480002 L228.352004,16.4480027 L222.368003,22.5920037 L213.760002,22.5920037 Z"/></g></svg>