<svg xmlns="http://www.w3.org/2000/svg" viewBox="0 0 100 100"><g fill="#0066C9" fill-rule="evenodd" transform="translate(46 1)"><rect width="9" height="22.5" opacity=".14"/><polygon points="19.125 5.125 28.125 5.125 28.125 27.625 19.125 27.625" opacity=".29" transform="rotate(30 23.625 16.374)"/><polygon points="33.125 19.125 42.125 19.125 42.125 41.625 33.125 41.625" opacity=".43" transform="rotate(60 37.625 30.375)"/><polygon points="38.25 38.25 47.25 38.25 47.25 60.75 38.25 60.75" opacity=".57" transform="rotate(90 42.75 49.5)"/><polygon points="33.125 57.375 42.125 57.375 42.125 79.875 33.125 79.875" opacity=".71" transform="rotate(120 37.625 68.625)"/><polygon points="19.125 71.375 28.125 71.375 28.125 93.875 19.125 93.875" opacity=".86" transform="rotate(150 23.625 82.625)"/><rect width="9" height="22.5" y="76.5" transform="rotate(180 4.5 87.75)"/></g></svg>