<svg xmlns="http://www.w3.org/2000/svg" viewBox="0 0 100 100"><path fill="#FFD766" d="M23.8379023,47.3809524 L23.8379023,90.2380952 C23.8379023,93.0952381 21.9308701,95 19.0703218,95 L0,95 L0,42.6190476 L19.0703218,42.6190476 C21.9308701,42.6190476 23.8379023,44.5238095 23.8379023,47.3809524 Z M99.6424315,53.0952381 L96.7818832,45.952381 C95.8283671,44.047619 94.398093,43.0952381 92.4910608,43.0952381 L63.40882,43.0952381 C61.9785459,43.0952381 60.5482718,41.6666667 61.0250298,39.7619048 L66.2693683,26.4285714 C66.7461263,25 67.2228844,23.0952381 67.2228844,21.1904762 L67.2228844,11.6666667 C67.2228844,8.33333333 64.8390942,5.47619048 61.9785459,5 C61.9785459,5 61.5017878,5 61.5017878,5 C60.5482718,5 60.0715137,5.47619048 59.5947557,5.95238095 L49.1060787,22.6190476 C48.6293206,23.0952381 48.1525626,23.5714286 48.1525626,24.5238095 L33.3730632,42.6190476 L33.3730632,87.8571429 L37.6638856,92.1428571 C39.5709178,94.047619 41.954708,95 44.3384982,95 L79.1418355,95 C82.9558999,95 86.7699642,92.6190476 88.2002384,88.8095238 L99.6424315,55.952381 C100.11919,55 100.11919,54.047619 99.6424315,53.0952381 Z"/></svg>