<svg xmlns="http://www.w3.org/2000/svg" viewBox="0 0 100 100"><path fill="#FE8B00" d="M99.197861,86.668 L54.6345811,8.348 C53.5650624,6.568 51.7825312,5.5 50,5.5 C48.2174688,5.5 46.4349376,6.568 45.3654189,8.348 L0.802139037,86.668 C-0.267379679,88.448 -0.267379679,90.228 0.802139037,92.008 C1.87165775,93.788 3.65418895,94.5 5.43672014,94.5 L94.5632799,94.5 C96.3458111,94.5 98.1283422,93.432 99.197861,92.008 C100.26738,90.228 100.26738,88.092 99.197861,86.668 Z M14.7058824,83.82 L50,21.52 L85.2941176,83.82 L14.7058824,83.82 Z M55.3475936,73.14 L55.3475936,76.7 C55.3475936,78.836 53.9215686,80.26 51.7825312,80.26 L48.2174688,80.26 C46.0784314,80.26 44.6524064,78.836 44.6524064,76.7 L44.6524064,73.14 C44.6524064,71.004 46.0784314,69.58 48.2174688,69.58 L51.7825312,69.58 C53.9215686,69.58 55.3475936,71.004 55.3475936,73.14 Z M48.2174688,41.1 L51.7825312,41.1 C53.9215686,41.1 55.3475936,42.524 55.3475936,44.66 L55.3475936,55.34 L53.2085561,64.596 C53.2085561,65.308 52.4955437,66.02 51.426025,66.02 L48.573975,66.02 C47.8609626,66.02 46.7914439,65.308 46.7914439,64.596 L44.6524064,55.34 L44.6524064,44.66 C44.6524064,42.524 46.0784314,41.1 48.2174688,41.1 Z"/></svg>